<?xml version="1.0" encoding="UTF-8"?>
<svg width="24" height="24" viewBox="0 0 24 24" fill="none" xmlns="http://www.w3.org/2000/svg">
  <path d="M10 3C6.13401 3 3 6.13401 3 10C3 13.866 6.13401 17 10 17C11.933 17 13.683 16.2165 15 14.9649L20.2929 20.2929C20.6834 20.6834 21.3166 20.6834 21.7071 20.2929C22.0976 19.9024 22.0976 19.2692 21.7071 18.8787L16.4142 13.5858C17.4415 12.3425 18 10.7435 18 9C18 5.13401 14.866 2 11 2C10.6641 2 10.3333 2.02241 10.0088 2.06569C10.0029 2.06664 9.99708 2.06664 9.99121 2.06569C9.66666 2.02241 9.33594 2 9 2Z" stroke="currentColor" stroke-width="2" stroke-linecap="round" stroke-linejoin="round"/>
</svg>
